# xmcd CD database file
#
# Track frame offsets:
#	150
#	21905
#	41482
#	63602
#	89680
#	93340
#	111132
#	129260
#	160165
#	182222
#
# Disc length: 2573 seconds
#
# Revision: 4
# Processed by: cddbd v1.5PL3 Copyright (c) Steve Scherf et al.
# Submitted via: CDex 1.50Beta7
#
DISCID=820a0b0a
DTITLE=Stuff - Stuff it!
DYEAR=1979
DGENRE=Fusion
TTITLE0=Mighty Love
TTITLE1=Dance With Me
TTITLE2=Since You've Been Gone (Baby,Baby,Sweet Baby)
TTITLE3=Always
TTITLE4=Stuff It
TTITLE5=Love Having You Around
TTITLE6=Rainbows
TTITLE7=Gordon's Theme
TTITLE8=Talkin' About My Love For You
TTITLE9=Do It Again
EXTD=YEAR: 1979
EXTT0=
EXTT1=
EXTT2=
EXTT3=
EXTT4=
EXTT5=
EXTT6=
EXTT7=
EXTT8=
EXTT9=
PLAYORDER=
